0
SECTION
2
ENTITIES
0
POINT
10
4
20
-93
30
-5
0
TEXT
1
p0-0
10
4
20
-93
30
-5
40
0.1
50
0
41
1
0
POINT
10
8
20
-93
30
-6
0
TEXT
1
p0-1
10
8
20
-93
30
-6
40
0.1
50
0
41
1
0
POINT
10
3
20
-98
30
-5
0
TEXT
1
p0-2
10
3
20
-98
30
-5
40
0.1
50
0
41
1
0
POINT
10
7
20
-98
30
-7
0
TEXT
1
p0-3
10
7
20
-98
30
-7
40
0.1
50
0
41
1
0
POINT
10
24
20
-90
30
-6
0
TEXT
1
p1-0
10
24
20
-90
30
-6
40
0.1
50
0
41
1
0
POINT
10
28
20
-88
30
-5
0
TEXT
1
p1-1
10
28
20
-88
30
-5
40
0.1
50
0
41
1
0
POINT
10
22
20
-94
30
-8
0
TEXT
1
p1-2
10
22
20
-94
30
-8
40
0.1
50
0
41
1
0
POINT
10
25
20
-93
30
-8
0
TEXT
1
p1-3
10
25
20
-93
30
-8
40
0.1
50
0
41
1
0
POINT
10
25
20
-62
30
0
0
TEXT
1
p2-0
10
25
20
-62
30
0
40
0.1
50
0
41
1
0
POINT
10
35
20
-58
30
0
0
TEXT
1
p2-1
10
35
20
-58
30
0
40
0.1
50
0
41
1
0
POINT
10
4.973
20
-61
30
2
0
TEXT
1
p3-0
10
4.973
20
-61
30
2
40
0.1
50
0
41
1
0
POINT
10
8.453
20
-63
30
3
0
TEXT
1
p3-1
10
8.453
20
-63
30
3
40
0.1
50
0
41
1
0
POINT
10
15
20
-61
30
2
0
TEXT
1
p3-2
10
15
20
-61
30
2
40
0.1
50
0
41
1
0
POINT
10
5.006
20
-66
30
1.896
0
TEXT
1
p3-3
10
5.006
20
-66
30
1.896
40
0.1
50
0
41
1
0
POINT
10
5
20
-70
30
0
0
TEXT
1
p3-4
10
5
20
-70
30
0
40
0.1
50
0
41
1
0
POINT
10
15
20
-66
30
0
0
TEXT
1
p3-5
10
15
20
-66
30
0
40
0.1
50
0
41
1
0
POINT
10
6
20
-74
30
-2
0
TEXT
1
p3-6
10
6
20
-74
30
-2
40
0.1
50
0
41
1
0
POINT
10
16
20
-71
30
-1
0
TEXT
1
p3-7
10
16
20
-71
30
-1
40
0.1
50
0
41
1
0
POINT
10
0
20
0
30
0
0
TEXT
1
p4-0
10
0
20
0
30
0
40
0.1
50
0
41
1
0
POINT
10
0
20
-18
30
3
0
TEXT
1
p4-1
10
0
20
-18
30
3
40
0.1
50
0
41
1
0
POINT
10
0
20
-57
30
0
0
TEXT
1
p5-0
10
0
20
-57
30
0
40
0.1
50
0
41
1
0
POINT
10
0
20
-58
30
-1.044
0
TEXT
1
p5-1
10
0
20
-58
30
-1.044
40
0.1
50
0
41
1
0
POINT
10
10
20
-3
30
-3
0
TEXT
1
p6-0
10
10
20
-3
30
-3
40
0.1
50
0
41
1
0
POINT
10
12
20
-18
30
2
0
TEXT
1
p6-1
10
12
20
-18
30
2
40
0.1
50
0
41
1
0
POINT
10
22
20
-11
30
-6
0
TEXT
1
p7-0
10
22
20
-11
30
-6
40
0.1
50
0
41
1
0
POINT
10
28
20
-15
30
-8
0
TEXT
1
p7-1
10
28
20
-15
30
-8
40
0.1
50
0
41
1
0
POINT
10
23
20
-23
30
-3
0
TEXT
1
p7-2
10
23
20
-23
30
-3
40
0.1
50
0
41
1
0
POINT
10
29
20
-25
30
-5
0
TEXT
1
p7-3
10
29
20
-25
30
-5
40
0.1
50
0
41
1
0
POINT
10
27
20
-47
30
3
0
TEXT
1
p8-0
10
27
20
-47
30
3
40
0.1
50
0
41
1
0
POINT
10
33
20
-45
30
0
0
TEXT
1
p8-1
10
33
20
-45
30
0
40
0.1
50
0
41
1
0
POINT
10
15
20
-50
30
10
0
TEXT
1
p9-0
10
15
20
-50
30
10
40
0.1
50
0
41
1
0
POINT
10
0
20
-55
30
10
0
TEXT
1
p10-0
10
0
20
-55
30
10
40
0.1
50
0
41
1
0
POINT
10
16
20
-93
30
-8
0
TEXT
1
p12-0
10
16
20
-93
30
-8
40
0.1
50
0
41
1
0
POINT
10
15
20
-98
30
-10
0
TEXT
1
p12-1
10
15
20
-98
30
-10
40
0.1
50
0
41
1
0
POINT
10
-8
20
-93
30
-6
0
TEXT
1
p13-0
10
-8
20
-93
30
-6
40
0.1
50
0
41
1
0
POINT
10
-4
20
-93
30
-5
0
TEXT
1
p13-1
10
-4
20
-93
30
-5
40
0.1
50
0
41
1
0
POINT
10
-7
20
-98
30
-7
0
TEXT
1
p13-2
10
-7
20
-98
30
-7
40
0.1
50
0
41
1
0
POINT
10
-3
20
-98
30
-5
0
TEXT
1
p13-3
10
-3
20
-98
30
-5
40
0.1
50
0
41
1
0
POINT
10
-28
20
-88
30
-5
0
TEXT
1
p14-0
10
-28
20
-88
30
-5
40
0.1
50
0
41
1
0
POINT
10
-24
20
-90
30
-6
0
TEXT
1
p14-1
10
-24
20
-90
30
-6
40
0.1
50
0
41
1
0
POINT
10
-25
20
-93
30
-8
0
TEXT
1
p14-2
10
-25
20
-93
30
-8
40
0.1
50
0
41
1
0
POINT
10
-22
20
-94
30
-8
0
TEXT
1
p14-3
10
-22
20
-94
30
-8
40
0.1
50
0
41
1
0
POINT
10
-35
20
-58
30
0
0
TEXT
1
p15-0
10
-35
20
-58
30
0
40
0.1
50
0
41
1
0
POINT
10
-25
20
-62
30
0
0
TEXT
1
p15-1
10
-25
20
-62
30
0
40
0.1
50
0
41
1
0
POINT
10
-11
20
-61
30
2
0
TEXT
1
p16-0
10
-11
20
-61
30
2
40
0.1
50
0
41
1
0
POINT
10
-8.453
20
-63
30
3
0
TEXT
1
p16-1
10
-8.453
20
-63
30
3
40
0.1
50
0
41
1
0
POINT
10
-4.973
20
-61
30
2
0
TEXT
1
p16-2
10
-4.973
20
-61
30
2
40
0.1
50
0
41
1
0
POINT
10
-15
20
-66
30
0
0
TEXT
1
p16-3
10
-15
20
-66
30
0
40
0.1
50
0
41
1
0
POINT
10
-5
20
-70
30
0
0
TEXT
1
p16-4
10
-5
20
-70
30
0
40
0.1
50
0
41
1
0
POINT
10
-5.006
20
-66
30
1.896
0
TEXT
1
p16-5
10
-5.006
20
-66
30
1.896
40
0.1
50
0
41
1
0
POINT
10
-16
20
-71
30
-1
0
TEXT
1
p16-6
10
-16
20
-71
30
-1
40
0.1
50
0
41
1
0
POINT
10
-6
20
-74
30
-2
0
TEXT
1
p16-7
10
-6
20
-74
30
-2
40
0.1
50
0
41
1
0
POINT
10
8
20
-83
30
-5
0
TEXT
1
p17-0
10
8
20
-83
30
-5
40
0.1
50
0
41
1
0
POINT
10
11
20
-83
30
-5
0
TEXT
1
p17-1
10
11
20
-83
30
-5
40
0.1
50
0
41
1
0
POINT
10
-11
20
-83
30
-5
0
TEXT
1
p18-0
10
-11
20
-83
30
-5
40
0.1
50
0
41
1
0
POINT
10
-8
20
-83
30
-5
0
TEXT
1
p18-1
10
-8
20
-83
30
-5
40
0.1
50
0
41
1
0
POINT
10
-10
20
-3
30
-3
0
TEXT
1
p19-0
10
-10
20
-3
30
-3
40
0.1
50
0
41
1
0
POINT
10
-12
20
-18
30
2
0
TEXT
1
p19-1
10
-12
20
-18
30
2
40
0.1
50
0
41
1
0
POINT
10
-28
20
-15
30
-8
0
TEXT
1
p20-0
10
-28
20
-15
30
-8
40
0.1
50
0
41
1
0
POINT
10
-22
20
-11
30
-6
0
TEXT
1
p20-1
10
-22
20
-11
30
-6
40
0.1
50
0
41
1
0
POINT
10
-29
20
-25
30
-5
0
TEXT
1
p20-2
10
-29
20
-25
30
-5
40
0.1
50
0
41
1
0
POINT
10
-23
20
-23
30
-3
0
TEXT
1
p20-3
10
-23
20
-23
30
-3
40
0.1
50
0
41
1
0
POINT
10
-33
20
-45
30
0
0
TEXT
1
p21-0
10
-33
20
-45
30
0
40
0.1
50
0
41
1
0
POINT
10
-27
20
-47
30
3
0
TEXT
1
p21-1
10
-27
20
-47
30
3
40
0.1
50
0
41
1
0
POINT
10
-15
20
-50
30
10
0
TEXT
1
p22-0
10
-15
20
-50
30
10
40
0.1
50
0
41
1
0
POINT
10
18
20
-83
30
-5
0
TEXT
1
p23-0
10
18
20
-83
30
-5
40
0.1
50
0
41
1
0
POINT
10
-16
20
-93
30
-8
0
TEXT
1
p25-0
10
-16
20
-93
30
-8
40
0.1
50
0
41
1
0
POINT
10
-15
20
-98
30
-10
0
TEXT
1
p25-1
10
-15
20
-98
30
-10
40
0.1
50
0
41
1
0
POINT
10
-18
20
-83
30
-5
0
TEXT
1
p26-0
10
-18
20
-83
30
-5
40
0.1
50
0
41
1
0
POINT
10
29
20
-81
30
-2
0
TEXT
1
p27-0
10
29
20
-81
30
-2
40
0.1
50
0
41
1
0
POINT
10
35
20
-80
30
0
0
TEXT
1
p27-1
10
35
20
-80
30
0
40
0.1
50
0
41
1
0
POINT
10
-35
20
-80
30
0
0
TEXT
1
p28-0
10
-35
20
-80
30
0
40
0.1
50
0
41
1
0
POINT
10
-29
20
-81
30
-2
0
TEXT
1
p28-1
10
-29
20
-81
30
-2
40
0.1
50
0
41
1
0
LINE
10
4
20
-93
30
-5
11
8
21
-83
31
-5
0
LINE
10
8
20
-93
30
-6
11
4
21
-93
31
-5
0
LINE
10
3
20
-98
30
-5
11
4
21
-93
31
-5
0
LINE
10
7
20
-98
30
-7
11
8
21
-93
31
-6
0
LINE
10
7
20
-98
30
-7
11
3
21
-98
31
-5
0
LINE
10
28
20
-88
30
-5
11
35
21
-80
31
0
0
LINE
10
28
20
-88
30
-5
11
24
21
-90
31
-6
0
LINE
10
22
20
-94
30
-8
11
24
21
-90
31
-6
0
LINE
10
22
20
-94
30
-8
11
15
21
-98
31
-10
0
LINE
10
25
20
-93
30
-8
11
28
21
-88
31
-5
0
LINE
10
25
20
-93
30
-8
11
22
21
-94
31
-8
0
LINE
10
25
20
-62
30
0
11
15
21
-66
31
0
0
LINE
10
35
20
-58
30
0
11
33
21
-45
31
0
0
LINE
10
35
20
-58
30
0
11
25
21
-62
31
0
0
LINE
10
8.453
20
-63
30
3
11
15
21
-50
31
10
0
LINE
10
8.453
20
-63
30
3
11
4.973
21
-61
31
2
0
LINE
10
15
20
-61
30
2
11
8.453
21
-63
31
3
0
LINE
10
5.006
20
-66
30
1.896
11
4.973
21
-61
31
2
0
LINE
10
5.006
20
-66
30
1.896
11
0
21
-58
31
-1.044
0
LINE
10
5
20
-70
30
0
11
8.453
21
-63
31
3
0
LINE
10
5
20
-70
30
0
11
5.006
21
-66
31
1.896
0
LINE
10
15
20
-66
30
0
11
15
21
-61
31
2
0
LINE
10
15
20
-66
30
0
11
5
21
-70
31
0
0
LINE
10
6
20
-74
30
-2
11
5
21
-70
31
0
0
LINE
10
16
20
-71
30
-1
11
15
21
-66
31
0
0
LINE
10
16
20
-71
30
-1
11
6
21
-74
31
-2
0
LINE
10
0
20
0
30
0
11
-10
21
-3
31
-3
0
LINE
10
0
20
-18
30
3
11
0
21
0
31
0
0
LINE
10
0
20
-57
30
0
11
0
21
-55
31
10
0
LINE
10
0
20
-58
30
-1.044
11
0
21
-57
31
0
0
LINE
10
0
20
-58
30
-1.044
11
-5.006
21
-66
31
1.896
0
LINE
10
10
20
-3
30
-3
11
0
21
0
31
0
0
LINE
10
12
20
-18
30
2
11
10
21
-3
31
-3
0
LINE
10
22
20
-11
30
-6
11
10
21
-3
31
-3
0
LINE
10
28
20
-15
30
-8
11
22
21
-11
31
-6
0
LINE
10
23
20
-23
30
-3
11
22
21
-11
31
-6
0
LINE
10
29
20
-25
30
-5
11
28
21
-15
31
-8
0
LINE
10
29
20
-25
30
-5
11
23
21
-23
31
-3
0
LINE
10
27
20
-47
30
3
11
15
21
-50
31
10
0
LINE
10
33
20
-45
30
0
11
29
21
-25
31
-5
0
LINE
10
33
20
-45
30
0
11
27
21
-47
31
3
0
LINE
10
15
20
-50
30
10
11
12
21
-18
31
2
0
LINE
10
15
20
-50
30
10
11
0
21
-55
31
10
0
LINE
10
0
20
-55
30
10
11
0
21
-18
31
3
0
LINE
10
0
20
-55
30
10
11
-15
21
-50
31
10
0
LINE
10
16
20
-93
30
-8
11
18
21
-83
31
-5
0
LINE
10
15
20
-98
30
-10
11
16
21
-93
31
-8
0
LINE
10
15
20
-98
30
-10
11
7
21
-98
31
-7
0
LINE
10
-4
20
-93
30
-5
11
-8
21
-83
31
-5
0
LINE
10
-4
20
-93
30
-5
11
-8
21
-93
31
-6
0
LINE
10
-7
20
-98
30
-7
11
-8
21
-93
31
-6
0
LINE
10
-7
20
-98
30
-7
11
-15
21
-98
31
-10
0
LINE
10
-3
20
-98
30
-5
11
-4
21
-93
31
-5
0
LINE
10
-3
20
-98
30
-5
11
-7
21
-98
31
-7
0
LINE
10
-28
20
-88
30
-5
11
-35
21
-80
31
0
0
LINE
10
-24
20
-90
30
-6
11
-28
21
-88
31
-5
0
LINE
10
-25
20
-93
30
-8
11
-28
21
-88
31
-5
0
LINE
10
-22
20
-94
30
-8
11
-24
21
-90
31
-6
0
LINE
10
-22
20
-94
30
-8
11
-25
21
-93
31
-8
0
LINE
10
-35
20
-58
30
0
11
-33
21
-45
31
0
0
LINE
10
-25
20
-62
30
0
11
-35
21
-58
31
0
0
LINE
10
-8.453
20
-63
30
3
11
-15
21
-50
31
10
0
LINE
10
-8.453
20
-63
30
3
11
-11
21
-61
31
2
0
LINE
10
-4.973
20
-61
30
2
11
-8.453
21
-63
31
3
0
LINE
10
-15
20
-66
30
0
11
-11
21
-61
31
2
0
LINE
10
-15
20
-66
30
0
11
-25
21
-62
31
0
0
LINE
10
-5
20
-70
30
0
11
-8.453
21
-63
31
3
0
LINE
10
-5
20
-70
30
0
11
-15
21
-66
31
0
0
LINE
10
-5.006
20
-66
30
1.896
11
-4.973
21
-61
31
2
0
LINE
10
-5.006
20
-66
30
1.896
11
-5
21
-70
31
0
0
LINE
10
-16
20
-71
30
-1
11
-15
21
-66
31
0
0
LINE
10
-6
20
-74
30
-2
11
-5
21
-70
31
0
0
LINE
10
-6
20
-74
30
-2
11
-16
21
-71
31
-1
0
LINE
10
8
20
-83
30
-5
11
6
21
-74
31
-2
0
LINE
10
11
20
-83
30
-5
11
8
21
-83
31
-5
0
LINE
10
-11
20
-83
30
-5
11
-18
21
-83
31
-5
0
LINE
10
-8
20
-83
30
-5
11
-6
21
-74
31
-2
0
LINE
10
-8
20
-83
30
-5
11
-11
21
-83
31
-5
0
LINE
10
-10
20
-3
30
-3
11
-22
21
-11
31
-6
0
LINE
10
-12
20
-18
30
2
11
-10
21
-3
31
-3
0
LINE
10
-22
20
-11
30
-6
11
-28
21
-15
31
-8
0
LINE
10
-29
20
-25
30
-5
11
-28
21
-15
31
-8
0
LINE
10
-23
20
-23
30
-3
11
-22
21
-11
31
-6
0
LINE
10
-23
20
-23
30
-3
11
-29
21
-25
31
-5
0
LINE
10
-33
20
-45
30
0
11
-29
21
-25
31
-5
0
LINE
10
-27
20
-47
30
3
11
-33
21
-45
31
0
0
LINE
10
-15
20
-50
30
10
11
-12
21
-18
31
2
0
LINE
10
-15
20
-50
30
10
11
-27
21
-47
31
3
0
LINE
10
18
20
-83
30
-5
11
11
21
-83
31
-5
0
LINE
10
-16
20
-93
30
-8
11
-18
21
-83
31
-5
0
LINE
10
-15
20
-98
30
-10
11
-16
21
-93
31
-8
0
LINE
10
-15
20
-98
30
-10
11
-22
21
-94
31
-8
0
LINE
10
-18
20
-83
30
-5
11
-29
21
-81
31
-2
0
LINE
10
29
20
-81
30
-2
11
18
21
-83
31
-5
0
LINE
10
35
20
-80
30
0
11
35
21
-58
31
0
0
LINE
10
35
20
-80
30
0
11
29
21
-81
31
-2
0
LINE
10
-35
20
-80
30
0
11
-35
21
-58
31
0
0
LINE
10
-29
20
-81
30
-2
11
-35
21
-80
31
0
0
ENDSEC
0
EOF
