0
SECTION
2
ENTITIES
0
LINE
10
4
20
0
30
0
11
5
21
0
31
0
62
200
0
LINE
10
6
20
1
30
0
11
6
21
0
31
0
62
200
0
LINE
10
4
20
2
30
0
11
6
21
2
31
0
62
200
0
LINE
10
4
20
2
30
0
11
4
21
1
31
0
62
200
0
LINE
10
3
20
4
30
0
11
4
21
4
31
0
62
200
0
LINE
10
4
20
4
30
0
11
4
21
3
31
0
62
200
0
LINE
10
4
20
4
30
0
11
6
21
4
31
0
62
200
0
LINE
10
6
20
3
30
0
11
6
21
2
31
0
62
200
0
LINE
10
3
20
4
30
0
11
3
21
3
31
0
62
200
0
LINE
10
3
20
2
30
0
11
4
21
2
31
0
62
200
0
LINE
10
6
20
4
30
0
11
6
21
3
31
0
62
200
0
LINE
10
4
20
3
30
0
11
6
21
3
31
0
62
200
0
LINE
10
3
20
3
30
0
11
3
21
2
31
0
62
200
0
LINE
10
3
20
3
30
0
11
4
21
3
31
0
62
200
0
LINE
10
5
20
0
30
0
11
6
21
0
31
0
62
200
0
LINE
10
1
20
0
30
0
11
2
21
0
31
0
62
200
0
LINE
10
0
20
2
30
0
11
0
21
1
31
0
62
200
0
LINE
10
0
20
2
30
0
11
2
21
2
31
0
62
200
0
LINE
10
2
20
1
30
0
11
2
21
0
31
0
62
200
0
LINE
10
2
20
4
30
0
11
3
21
4
31
0
62
200
0
LINE
10
2
20
4
30
0
11
2
21
3
31
0
62
200
0
LINE
10
0
20
4
30
0
11
2
21
4
31
0
62
200
0
LINE
10
0
20
3
30
0
11
0
21
2
31
0
62
200
0
LINE
10
4
20
1
30
0
11
4
21
0
31
0
62
200
0
LINE
10
2
20
2
30
0
11
3
21
2
31
0
62
200
0
LINE
10
0
20
4
30
0
11
0
21
3
31
0
62
200
0
LINE
10
0
20
3
30
0
11
2
21
3
31
0
62
200
0
LINE
10
2
20
2
30
0
11
2
21
1
31
0
62
200
0
LINE
10
2
20
3
30
0
11
3
21
3
31
0
62
200
0
LINE
10
0
20
0
30
0
11
1
21
0
31
0
62
200
0
LINE
10
1
20
1
30
0
11
1
21
0
31
0
62
200
0
LINE
10
5
20
1
30
0
11
5
21
0
31
0
62
200
0
LINE
10
4
20
1
30
0
11
5
21
1
31
0
62
200
0
LINE
10
1
20
1
30
0
11
2
21
1
31
0
62
200
0
LINE
10
6
20
2
30
0
11
6
21
1
31
0
62
200
0
LINE
10
0
20
1
30
0
11
0
21
0
31
0
62
200
0
LINE
10
5
20
1
30
0
11
6
21
1
31
0
62
200
0
LINE
10
0
20
1
30
0
11
1
21
1
31
0
62
200
0
LINE
10
4
20
0
30
0
11
4
21
0.2
31
0
62
100
0
TEXT
1
n0-0
10
4
20
0.2
30
0
40
0.03
50
0
41
1
0
LINE
10
4
20
0
30
0
11
4.2
21
0
31
0
62
100
0
TEXT
1
n0-3
10
4.2
20
0
30
0
40
0.03
50
0
41
1
0
LINE
10
4
20
0.2
30
0
11
4.2
21
0.2
31
0
62
100
0
LINE
10
4.2
20
0
30
0
11
4.2
21
0.2
31
0
62
100
0
TEXT
1
n0-1
10
4.2
20
0.2
30
0
40
0.03
50
0
41
1
0
TEXT
1
n0-2
10
4
20
0
30
0
40
0.03
50
0
41
1
0
LINE
10
6
20
0
30
0
11
6
21
0.2
31
0
62
100
0
TEXT
1
n1-1
10
6
20
0.2
30
0
40
0.03
50
0
41
1
0
LINE
10
6
20
0
30
0
11
5.8
21
0
31
0
62
100
0
TEXT
1
n1-2
10
5.8
20
0
30
0
40
0.03
50
0
41
1
0
LINE
10
6
20
0.2
30
0
11
5.8
21
0.2
31
0
62
100
0
LINE
10
5.8
20
0
30
0
11
5.8
21
0.2
31
0
62
100
0
TEXT
1
n1-0
10
5.8
20
0.2
30
0
40
0.03
50
0
41
1
0
TEXT
1
n1-3
10
6
20
0
30
0
40
0.03
50
0
41
1
0
LINE
10
6
20
2
30
0
11
5.8
21
2
31
0
62
100
0
TEXT
1
n2-0
10
5.8
20
2
30
0
40
0.03
50
0
41
1
0
TEXT
1
n2-1
10
6
20
2
30
0
40
0.03
50
0
41
1
0
LINE
10
4
20
2
30
0
11
4
21
2.2
31
0
62
100
0
TEXT
1
n3-1
10
4
20
2.2
30
0
40
0.03
50
0
41
1
0
LINE
10
4
20
2
30
0
11
4
21
1.8
31
0
62
100
0
TEXT
1
n3-6
10
4
20
1.8
30
0
40
0.03
50
0
41
1
0
LINE
10
4
20
2
30
0
11
3.8
21
2
31
0
62
100
0
TEXT
1
n3-3
10
3.8
20
2
30
0
40
0.03
50
0
41
1
0
LINE
10
4
20
2
30
0
11
4.2
21
2
31
0
62
100
0
TEXT
1
n3-5
10
4.2
20
2
30
0
40
0.03
50
0
41
1
0
LINE
10
4
20
2.2
30
0
11
3.8
21
2.2
31
0
62
100
0
LINE
10
3.8
20
2
30
0
11
3.8
21
2.2
31
0
62
100
0
TEXT
1
n3-0
10
3.8
20
2.2
30
0
40
0.03
50
0
41
1
0
LINE
10
4
20
2.2
30
0
11
4.2
21
2.2
31
0
62
100
0
LINE
10
4.2
20
2
30
0
11
4.2
21
2.2
31
0
62
100
0
TEXT
1
n3-2
10
4.2
20
2.2
30
0
40
0.03
50
0
41
1
0
LINE
10
4
20
1.8
30
0
11
4.2
21
1.8
31
0
62
100
0
LINE
10
4.2
20
2
30
0
11
4.2
21
1.8
31
0
62
100
0
TEXT
1
n3-7
10
4.2
20
1.8
30
0
40
0.03
50
0
41
1
0
TEXT
1
n3-4
10
4
20
2
30
0
40
0.03
50
0
41
1
0
LINE
10
3
20
4
30
0
11
3
21
3.8
31
0
62
100
0
TEXT
1
n4-1
10
3
20
3.8
30
0
40
0.03
50
0
41
1
0
TEXT
1
n4-0
10
3
20
4
30
0
40
0.03
50
0
41
1
0
LINE
10
3
20
2
30
0
11
3
21
2.2
31
0
62
100
0
TEXT
1
n5-0
10
3
20
2.2
30
0
40
0.03
50
0
41
1
0
TEXT
1
n5-1
10
3
20
2
30
0
40
0.03
50
0
41
1
0
LINE
10
4
20
4
30
0
11
4
21
3.8
31
0
62
100
0
TEXT
1
n6-1
10
4
20
3.8
30
0
40
0.03
50
0
41
1
0
TEXT
1
n6-0
10
4
20
4
30
0
40
0.03
50
0
41
1
0
LINE
10
6
20
4
30
0
11
6
21
3.8
31
0
62
100
0
TEXT
1
n7-3
10
6
20
3.8
30
0
40
0.03
50
0
41
1
0
LINE
10
6
20
4
30
0
11
5.8
21
4
31
0
62
100
0
TEXT
1
n7-0
10
5.8
20
4
30
0
40
0.03
50
0
41
1
0
LINE
10
6
20
3.8
30
0
11
5.8
21
3.8
31
0
62
100
0
LINE
10
5.8
20
4
30
0
11
5.8
21
3.8
31
0
62
100
0
TEXT
1
n7-2
10
5.8
20
3.8
30
0
40
0.03
50
0
41
1
0
TEXT
1
n7-1
10
6
20
4
30
0
40
0.03
50
0
41
1
0
LINE
10
6
20
3
30
0
11
5.8
21
3
31
0
62
100
0
TEXT
1
n8-0
10
5.8
20
3
30
0
40
0.03
50
0
41
1
0
TEXT
1
n8-1
10
6
20
3
30
0
40
0.03
50
0
41
1
0
TEXT
1
n9-0
10
4
20
3
30
0
40
0.03
50
0
41
1
0
TEXT
1
n10-0
10
3
20
3
30
0
40
0.03
50
0
41
1
0
LINE
10
5
20
0
30
0
11
5
21
0.2
31
0
62
100
0
TEXT
1
n12-0
10
5
20
0.2
30
0
40
0.03
50
0
41
1
0
TEXT
1
n12-1
10
5
20
0
30
0
40
0.03
50
0
41
1
0
LINE
10
2
20
0
30
0
11
2
21
0.2
31
0
62
100
0
TEXT
1
n13-1
10
2
20
0.2
30
0
40
0.03
50
0
41
1
0
LINE
10
2
20
0
30
0
11
1.8
21
0
31
0
62
100
0
TEXT
1
n13-2
10
1.8
20
0
30
0
40
0.03
50
0
41
1
0
LINE
10
2
20
0.2
30
0
11
1.8
21
0.2
31
0
62
100
0
LINE
10
1.8
20
0
30
0
11
1.8
21
0.2
31
0
62
100
0
TEXT
1
n13-0
10
1.8
20
0.2
30
0
40
0.03
50
0
41
1
0
TEXT
1
n13-3
10
2
20
0
30
0
40
0.03
50
0
41
1
0
LINE
10
0
20
0
30
0
11
0
21
0.2
31
0
62
100
0
TEXT
1
n14-0
10
0
20
0.2
30
0
40
0.03
50
0
41
1
0
LINE
10
0
20
0
30
0
11
0.2
21
0
31
0
62
100
0
TEXT
1
n14-3
10
0.2
20
0
30
0
40
0.03
50
0
41
1
0
LINE
10
0
20
0.2
30
0
11
0.2
21
0.2
31
0
62
100
0
LINE
10
0.2
20
0
30
0
11
0.2
21
0.2
31
0
62
100
0
TEXT
1
n14-1
10
0.2
20
0.2
30
0
40
0.03
50
0
41
1
0
TEXT
1
n14-2
10
0
20
0
30
0
40
0.03
50
0
41
1
0
LINE
10
0
20
2
30
0
11
0.2
21
2
31
0
62
100
0
TEXT
1
n15-1
10
0.2
20
2
30
0
40
0.03
50
0
41
1
0
TEXT
1
n15-0
10
0
20
2
30
0
40
0.03
50
0
41
1
0
LINE
10
2
20
2
30
0
11
2
21
2.2
31
0
62
100
0
TEXT
1
n16-1
10
2
20
2.2
30
0
40
0.03
50
0
41
1
0
LINE
10
2
20
2
30
0
11
2
21
1.8
31
0
62
100
0
TEXT
1
n16-7
10
2
20
1.8
30
0
40
0.03
50
0
41
1
0
LINE
10
2
20
2
30
0
11
1.8
21
2
31
0
62
100
0
TEXT
1
n16-3
10
1.8
20
2
30
0
40
0.03
50
0
41
1
0
LINE
10
2
20
2
30
0
11
2.2
21
2
31
0
62
100
0
TEXT
1
n16-5
10
2.2
20
2
30
0
40
0.03
50
0
41
1
0
LINE
10
2
20
2.2
30
0
11
1.8
21
2.2
31
0
62
100
0
LINE
10
1.8
20
2
30
0
11
1.8
21
2.2
31
0
62
100
0
TEXT
1
n16-0
10
1.8
20
2.2
30
0
40
0.03
50
0
41
1
0
LINE
10
2
20
2.2
30
0
11
2.2
21
2.2
31
0
62
100
0
LINE
10
2.2
20
2
30
0
11
2.2
21
2.2
31
0
62
100
0
TEXT
1
n16-2
10
2.2
20
2.2
30
0
40
0.03
50
0
41
1
0
LINE
10
2
20
1.8
30
0
11
1.8
21
1.8
31
0
62
100
0
LINE
10
1.8
20
2
30
0
11
1.8
21
1.8
31
0
62
100
0
TEXT
1
n16-6
10
1.8
20
1.8
30
0
40
0.03
50
0
41
1
0
TEXT
1
n16-4
10
2
20
2
30
0
40
0.03
50
0
41
1
0
LINE
10
4
20
1
30
0
11
4.2
21
1
31
0
62
100
0
TEXT
1
n17-1
10
4.2
20
1
30
0
40
0.03
50
0
41
1
0
TEXT
1
n17-0
10
4
20
1
30
0
40
0.03
50
0
41
1
0
LINE
10
2
20
1
30
0
11
1.8
21
1
31
0
62
100
0
TEXT
1
n18-0
10
1.8
20
1
30
0
40
0.03
50
0
41
1
0
TEXT
1
n18-1
10
2
20
1
30
0
40
0.03
50
0
41
1
0
LINE
10
2
20
4
30
0
11
2
21
3.8
31
0
62
100
0
TEXT
1
n19-1
10
2
20
3.8
30
0
40
0.03
50
0
41
1
0
TEXT
1
n19-0
10
2
20
4
30
0
40
0.03
50
0
41
1
0
LINE
10
0
20
4
30
0
11
0
21
3.8
31
0
62
100
0
TEXT
1
n20-2
10
0
20
3.8
30
0
40
0.03
50
0
41
1
0
LINE
10
0
20
4
30
0
11
0.2
21
4
31
0
62
100
0
TEXT
1
n20-1
10
0.2
20
4
30
0
40
0.03
50
0
41
1
0
LINE
10
0
20
3.8
30
0
11
0.2
21
3.8
31
0
62
100
0
LINE
10
0.2
20
4
30
0
11
0.2
21
3.8
31
0
62
100
0
TEXT
1
n20-3
10
0.2
20
3.8
30
0
40
0.03
50
0
41
1
0
TEXT
1
n20-0
10
0
20
4
30
0
40
0.03
50
0
41
1
0
LINE
10
0
20
3
30
0
11
0.2
21
3
31
0
62
100
0
TEXT
1
n21-1
10
0.2
20
3
30
0
40
0.03
50
0
41
1
0
TEXT
1
n21-0
10
0
20
3
30
0
40
0.03
50
0
41
1
0
TEXT
1
n22-0
10
2
20
3
30
0
40
0.03
50
0
41
1
0
TEXT
1
n23-0
10
5
20
1
30
0
40
0.03
50
0
41
1
0
LINE
10
1
20
0
30
0
11
1
21
0.2
31
0
62
100
0
TEXT
1
n25-0
10
1
20
0.2
30
0
40
0.03
50
0
41
1
0
TEXT
1
n25-1
10
1
20
0
30
0
40
0.03
50
0
41
1
0
TEXT
1
n26-0
10
1
20
1
30
0
40
0.03
50
0
41
1
0
LINE
10
6
20
1
30
0
11
5.8
21
1
31
0
62
100
0
TEXT
1
n27-0
10
5.8
20
1
30
0
40
0.03
50
0
41
1
0
TEXT
1
n27-1
10
6
20
1
30
0
40
0.03
50
0
41
1
0
LINE
10
0
20
1
30
0
11
0.2
21
1
31
0
62
100
0
TEXT
1
n28-1
10
0.2
20
1
30
0
40
0.03
50
0
41
1
0
TEXT
1
n28-0
10
0
20
1
30
0
40
0.03
50
0
41
1
0
ENDSEC
0
EOF
