0
SECTION
2
ENTITIES
0
POINT
10
3
20
0
30
0
0
TEXT
1
v0
10
3
20
0
30
0
40
0.1
50
0
41
1
0
POINT
10
4
20
0
30
0
0
TEXT
1
v1
10
4
20
0
30
0
40
0.1
50
0
41
1
0
POINT
10
4
20
1
30
0
0
TEXT
1
v2
10
4
20
1
30
0
40
0.1
50
0
41
1
0
POINT
10
3
20
1
30
0
0
TEXT
1
v3
10
3
20
1
30
0
40
0.1
50
0
41
1
0
POINT
10
2
20
2
30
0
0
TEXT
1
v4
10
2
20
2
30
0
40
0.1
50
0
41
1
0
POINT
10
2
20
1
30
0
0
TEXT
1
v5
10
2
20
1
30
0
40
0.1
50
0
41
1
0
POINT
10
3
20
2
30
0
0
TEXT
1
v6
10
3
20
2
30
0
40
0.1
50
0
41
1
0
POINT
10
4
20
2
30
0
0
TEXT
1
v7
10
4
20
2
30
0
40
0.1
50
0
41
1
0
POINT
10
4
20
1.5
30
0
0
TEXT
1
v8
10
4
20
1.5
30
0
40
0.1
50
0
41
1
0
POINT
10
3
20
1.5
30
0
0
TEXT
1
v9
10
3
20
1.5
30
0
40
0.1
50
0
41
1
0
POINT
10
2
20
1.5
30
0
0
TEXT
1
v10
10
2
20
1.5
30
0
40
0.1
50
0
41
1
0
POINT
10
3.5
20
0
30
0
0
TEXT
1
v12
10
3.5
20
0
30
0
40
0.1
50
0
41
1
0
POINT
10
1
20
0
30
0
0
TEXT
1
v13
10
1
20
0
30
0
40
0.1
50
0
41
1
0
POINT
10
0
20
0
30
0
0
TEXT
1
v14
10
0
20
0
30
0
40
0.1
50
0
41
1
0
POINT
10
0
20
1
30
0
0
TEXT
1
v15
10
0
20
1
30
0
40
0.1
50
0
41
1
0
POINT
10
1
20
1
30
0
0
TEXT
1
v16
10
1
20
1
30
0
40
0.1
50
0
41
1
0
POINT
10
3
20
0.5
30
0
0
TEXT
1
v17
10
3
20
0.5
30
0
40
0.1
50
0
41
1
0
POINT
10
1
20
0.5
30
0
0
TEXT
1
v18
10
1
20
0.5
30
0
40
0.1
50
0
41
1
0
POINT
10
1
20
2
30
0
0
TEXT
1
v19
10
1
20
2
30
0
40
0.1
50
0
41
1
0
POINT
10
0
20
2
30
0
0
TEXT
1
v20
10
0
20
2
30
0
40
0.1
50
0
41
1
0
POINT
10
0
20
1.5
30
0
0
TEXT
1
v21
10
0
20
1.5
30
0
40
0.1
50
0
41
1
0
POINT
10
1
20
1.5
30
0
0
TEXT
1
v22
10
1
20
1.5
30
0
40
0.1
50
0
41
1
0
POINT
10
3.5
20
0.5
30
0
0
TEXT
1
v23
10
3.5
20
0.5
30
0
40
0.1
50
0
41
1
0
POINT
10
0.5
20
0
30
0
0
TEXT
1
v25
10
0.5
20
0
30
0
40
0.1
50
0
41
1
0
POINT
10
0.5
20
0.5
30
0
0
TEXT
1
v26
10
0.5
20
0.5
30
0
40
0.1
50
0
41
1
0
POINT
10
4
20
0.5
30
0
0
TEXT
1
v27
10
4
20
0.5
30
0
40
0.1
50
0
41
1
0
POINT
10
0
20
0.5
30
0
0
TEXT
1
v28
10
0
20
0.5
30
0
40
0.1
50
0
41
1
0
LINE
10
3
20
0
30
0
11
3.5
21
0
31
0
0
LINE
10
4
20
0.5
30
0
11
4
21
0
31
0
0
LINE
10
3
20
1
30
0
11
4
21
1
31
0
0
LINE
10
3
20
1
30
0
11
3
21
0.5
31
0
0
LINE
10
2
20
2
30
0
11
3
21
2
31
0
0
LINE
10
3
20
2
30
0
11
3
21
1.5
31
0
0
LINE
10
3
20
2
30
0
11
4
21
2
31
0
0
LINE
10
4
20
1.5
30
0
11
4
21
1
31
0
0
LINE
10
2
20
2
30
0
11
2
21
1.5
31
0
0
LINE
10
2
20
1
30
0
11
3
21
1
31
0
0
LINE
10
4
20
2
30
0
11
4
21
1.5
31
0
0
LINE
10
3
20
1.5
30
0
11
4
21
1.5
31
0
0
LINE
10
2
20
1.5
30
0
11
2
21
1
31
0
0
LINE
10
2
20
1.5
30
0
11
3
21
1.5
31
0
0
LINE
10
3.5
20
0
30
0
11
4
21
0
31
0
0
LINE
10
0.5
20
0
30
0
11
1
21
0
31
0
0
LINE
10
0
20
1
30
0
11
0
21
0.5
31
0
0
LINE
10
0
20
1
30
0
11
1
21
1
31
0
0
LINE
10
1
20
0.5
30
0
11
1
21
0
31
0
0
LINE
10
1
20
2
30
0
11
2
21
2
31
0
0
LINE
10
1
20
2
30
0
11
1
21
1.5
31
0
0
LINE
10
0
20
2
30
0
11
1
21
2
31
0
0
LINE
10
0
20
1.5
30
0
11
0
21
1
31
0
0
LINE
10
3
20
0.5
30
0
11
3
21
0
31
0
0
LINE
10
1
20
1
30
0
11
2
21
1
31
0
0
LINE
10
0
20
2
30
0
11
0
21
1.5
31
0
0
LINE
10
0
20
1.5
30
0
11
1
21
1.5
31
0
0
LINE
10
1
20
1
30
0
11
1
21
0.5
31
0
0
LINE
10
1
20
1.5
30
0
11
2
21
1.5
31
0
0
LINE
10
0
20
0
30
0
11
0.5
21
0
31
0
0
LINE
10
0.5
20
0.5
30
0
11
0.5
21
0
31
0
0
LINE
10
3.5
20
0.5
30
0
11
3.5
21
0
31
0
0
LINE
10
3
20
0.5
30
0
11
3.5
21
0.5
31
0
0
LINE
10
0.5
20
0.5
30
0
11
1
21
0.5
31
0
0
LINE
10
4
20
1
30
0
11
4
21
0.5
31
0
0
LINE
10
0
20
0.5
30
0
11
0
21
0
31
0
0
LINE
10
3.5
20
0.5
30
0
11
4
21
0.5
31
0
0
LINE
10
0
20
0.5
30
0
11
0.5
21
0.5
31
0
0
ENDSEC
0
EOF
